<svg width="124" height="27" viewBox="0 0 124 27" fill="none" xmlns="http://www.w3.org/2000/svg">
<path fill-rule="evenodd" clip-rule="evenodd" d="M11.2397 8.38963C10.8023 7.98584 10.1203 8.01311 9.71654 8.45055L6.23402 12.2232C5.85287 12.6361 5.85286 13.2726 6.23401 13.6855L9.71653 17.4583C10.1203 17.8957 10.8023 17.923 11.2397 17.5192C11.6772 17.1154 11.7045 16.4335 11.3007 15.996L9.48802 14.0323L19.9611 14.0323C20.5565 14.0323 21.0391 13.5497 21.0391 12.9544C21.0391 12.3591 20.5565 11.8765 19.9611 11.8765L9.48805 11.8765L11.3007 9.91283C11.7044 9.47539 11.6772 8.79343 11.2397 8.38963Z" fill="#929292"/>
<rect x="60.9219" y="0.55835" width="2.15584" height="25.8701" rx="1.07792" fill="#E6E8EC"/>
<path fill-rule="evenodd" clip-rule="evenodd" d="M112.76 8.38963C113.198 7.98584 113.88 8.01311 114.283 8.45055L117.766 12.2232C118.147 12.6361 118.147 13.2726 117.766 13.6855L114.283 17.4583C113.88 17.8957 113.198 17.923 112.76 17.5192C112.323 17.1154 112.296 16.4335 112.699 15.996L114.512 14.0323L104.039 14.0323C103.444 14.0323 102.961 13.5497 102.961 12.9544C102.961 12.3591 103.444 11.8765 104.039 11.8765L114.512 11.8765L112.699 9.91283C112.296 9.47539 112.323 8.79343 112.76 8.38963Z" fill="#23262F"/>
</svg>
