<svg width="26" height="26" viewBox="0 0 26 26" fill="none" xmlns="http://www.w3.org/2000/svg">
<path d="M17.9942 2.56152H7.20599C5.58986 2.56152 4.26758 3.87331 4.26758 5.49994V20.6014C4.26758 22.228 5.58986 23.5503 7.20599 23.5503H17.9942C19.6209 23.5503 20.9327 22.228 20.9327 20.6014V5.49994C20.9327 3.87331 19.6209 2.56152 17.9942 2.56152ZM8.28694 17.7049H16.9133C17.3541 17.7049 17.7004 18.0617 17.7004 18.492C17.7004 18.9223 17.3541 19.2791 16.9133 19.2791H8.28694C7.85667 19.2791 7.49987 18.9223 7.49987 18.492C7.49987 18.0617 7.85667 17.7049 8.28694 17.7049ZM7.49987 13.0979C7.49987 12.6676 7.85667 12.3108 8.28694 12.3108H16.9133C17.3541 12.3108 17.7004 12.6676 17.7004 13.0979C17.7004 13.5386 17.3541 13.885 16.9133 13.885H8.28694C7.85667 13.885 7.49987 13.5386 7.49987 13.0979ZM16.9133 8.49084H8.28694C7.85667 8.49084 7.49987 8.14453 7.49987 7.70376C7.49987 7.27349 7.85667 6.91669 8.28694 6.91669H16.9133C17.3541 6.91669 17.7004 7.27349 17.7004 7.70376C17.7004 8.14453 17.3541 8.49084 16.9133 8.49084Z" fill="black"/>
</svg>
