<svg width="27" height="26" viewBox="0 0 27 26" fill="none" xmlns="http://www.w3.org/2000/svg">
<path d="M12.6558 9.96301V11.9779C11.9002 11.789 11.3965 11.3588 11.3965 10.9705C11.3965 10.5717 11.9002 10.1414 12.6558 9.96301Z" fill="black"/>
<path d="M15.4898 14.7484C15.4898 15.1367 14.9861 15.567 14.2305 15.7559V13.741C14.9861 13.9194 15.4898 14.3496 15.4898 14.7484Z" fill="black"/>
<path d="M20.6736 5.61834C18.7426 3.68737 16.1715 2.62744 13.443 2.62744C10.7144 2.62744 8.1433 3.68737 6.21233 5.61834C4.27087 7.5493 3.21094 10.1204 3.21094 12.8595C3.21094 14.2027 3.4733 15.525 3.98752 16.7739C4.50175 18.0227 5.25734 19.1351 6.21233 20.0901C7.15683 21.0451 8.27972 21.7902 9.52856 22.3044C10.7774 22.8291 12.0892 23.0915 13.443 23.0915C14.7967 23.0915 16.1085 22.8291 17.3574 22.3044C18.6062 21.7902 19.7291 21.0451 20.6736 20.0901C21.6286 19.1351 22.3842 18.0227 22.8984 16.7739C23.4126 15.525 23.675 14.2027 23.675 12.8595C23.675 10.1204 22.615 7.5493 20.6736 5.61834ZM14.23 17.3616V17.5819C14.23 18.0122 13.8732 18.369 13.443 18.369C13.0127 18.369 12.6559 18.0122 12.6559 17.5819V17.3511C11.7324 17.2041 10.9138 16.8054 10.3891 16.2072C10.1582 15.9343 10.1372 15.5355 10.3471 15.2417C10.557 14.9373 10.9348 14.8324 11.2706 14.9583L12.6559 15.4831V13.5731C11.0188 13.3212 9.8224 12.2613 9.8224 10.9705C9.8224 9.66917 11.0188 8.61973 12.6559 8.35737V8.13699C12.6559 7.69623 13.0127 7.34991 13.443 7.34991C13.8732 7.34991 14.23 7.69623 14.23 8.13699V8.35737C15.1535 8.51479 15.9721 8.91358 16.4968 9.50127C16.7277 9.77412 16.7487 10.1729 16.5388 10.4772C16.3919 10.6871 16.1505 10.8131 15.8986 10.8131C15.8042 10.8131 15.7097 10.7921 15.6153 10.7606L14.23 10.2254V12.1353C15.8672 12.3872 17.0635 13.4472 17.0635 14.7485C17.0635 16.0498 15.8672 17.0992 14.23 17.3616Z" fill="black"/>
</svg>
