<svg width="22" height="21" viewBox="0 0 22 21" fill="none" xmlns="http://www.w3.org/2000/svg">
<path fill-rule="evenodd" clip-rule="evenodd" d="M21.6325 12.4812V20.3603H17.0315V12.9988C17.0315 11.1584 16.3989 9.89316 14.731 9.89316C13.4658 9.89316 12.7181 10.7558 12.373 11.561C12.258 11.8486 12.2005 12.2512 12.2005 12.6537V20.3603H7.59952C7.59952 20.3603 7.65703 7.88025 7.59952 6.61499H12.2005V8.57039C12.2005 8.57039 12.2005 8.62789 12.143 8.62789H12.2005V8.57039C12.8331 7.6502 13.8684 6.26991 16.3414 6.26991C19.332 6.26991 21.6325 8.28283 21.6325 12.4812ZM2.88298 0.00109863C1.33014 0.00109863 0.294922 1.03631 0.294922 2.35909C0.294922 3.68186 1.27263 4.71709 2.82546 4.71709H2.88298C4.49333 4.71709 5.47103 3.68187 5.47103 2.35909C5.41352 1.03631 4.43581 0.00109863 2.88298 0.00109863ZM0.525568 20.3604H5.06905V6.61501H0.525568V20.3604Z" fill="#535353"/>
</svg>
