<svg width="22" height="19" viewBox="0 0 22 19" fill="none" xmlns="http://www.w3.org/2000/svg">
<path fill-rule="evenodd" clip-rule="evenodd" d="M21.6164 2.82596C20.8131 3.1774 20.0098 3.42842 19.1061 3.52883C20.0098 2.97658 20.7127 2.1231 21.0139 1.11901C20.1604 1.62106 19.2065 1.97249 18.2527 2.1733C17.4494 1.31982 16.2947 0.767578 15.0395 0.767578C12.6297 0.767578 10.6717 2.72555 10.6717 5.13537C10.6717 5.48681 10.7219 5.83823 10.7721 6.13947C7.10716 5.93865 3.89405 4.23169 1.73524 1.57085C1.3336 2.22351 1.13278 2.97658 1.13278 3.77985C1.13278 5.28599 1.88585 6.64151 3.09077 7.44478C2.3879 7.44478 1.68503 7.24397 1.08257 6.89253V6.94273C1.08257 9.05133 2.58872 10.8587 4.59692 11.2603C4.24548 11.3607 3.84384 11.4109 3.4422 11.4109C3.14098 11.4109 2.88995 11.3607 2.63893 11.3105C3.19118 13.0677 4.79774 14.3228 6.75572 14.373C5.24958 15.5277 3.392 16.2306 1.3336 16.2306C0.982165 16.2306 0.630733 16.2306 0.279297 16.1804C2.23729 17.4355 4.4965 18.1383 7.00675 18.1383C15.0897 18.1383 19.4576 11.4611 19.4576 5.68762C19.4576 5.48681 19.4576 5.28599 19.4576 5.13537C20.311 4.48272 21.0641 3.67944 21.6164 2.82596Z" fill="white"/>
</svg>
